/* XPM */
static char * image_name[]={
"32 32 68 2",
"  	c #7D7D7D",
". 	c #757575",
"X 	c #7F7F7F",
"o 	c #3B3B3B",
"O 	c #4D4D4D",
"+ 	c #787878",
"@ 	c #3D3D3D",
"# 	c #6E6E6E",
"$ 	c #828282",
"% 	c #B5B5B5",
"& 	c #6B6B6B",
"* 	c #404040",
"= 	c #D9D9D9",
"- 	c #737373",
"; 	c #1F1F1F",
": 	c #121212",
"> 	c #545454",
", 	c #7A7A7A",
"< 	c #FAFAFA",
"1 	c #525252",
"2 	c #383838",
"3 	c #333333",
"4 	c #708090",
"5 	c #2F4F4F",
"6 	c #1A1A1A",
"7 	c #9B7071",
"8 	c #ABABAB",
"9 	c #FFFFFF",
"0 	c #171717",
"q 	c #575757",
"w 	c #91535D",
"e 	c #A52A2A",
"r 	c #FF6347",
"t 	c #2B2B2B",
"y 	c #080808",
"u 	c #858585",
"i 	c #A8A8A8",
"p 	c #4A4A4A",
"a 	c #6B8E23",
"s 	c #232375",
"d 	c #5C5C5C",
"f 	c #454545",
"g 	c #7E7E7E",
"h 	c #41AC41",
"j 	c #32814B",
"k 	c #3232CC",
"l 	c #6A6A8D",
"z 	c #595959",
"x 	c #4438B5",
"c 	c #4955A5",
"v 	c #B3B37E",
"b 	c #D11619",
"n 	c #509F69",
"m 	c #238E23",
"M 	c #735694",
"N 	c #222298",
"B 	c #32D838",
"V 	c #DA322D",
"C 	c #4F4F4F",
"Z 	c #96522D",
"A 	c #6B3939",
"S 	c #474747",
"D 	c #141414",
"F 	c #2F2F64",
"G 	c #363636",
"H 	c #424242",
"J 	c #55562F",
"K 	c #BD52BD",
"  . X o O   . . . . . . . . . . . . . . . . . . . . +   . . . . ",
"@ # $ o O   . . . . . . . . . . . . . . . . . . . . +   . . . . ",
"% O & * O   . . . . . . . . . . . . . . . . . . . . +   . . . . ",
"= - ; : >   . . . . . . . . . . . . . . . . . . . . , $ + . . . ",
"< 1 2 3 1 X + + + + + + + + + + + + + + + + + , 4 4 5 6 > 7 + + ",
"8 9 $ 0 q $                                 4 w e r t y O u     ",
"o i 9 O p   . . . . . . . . . . . . . + . w e e w a s d & + . . ",
", f g 6 1   . . . . . . . . . . . . + w e e w + h j k l + . . . ",
". + z @ O   . . . . . . . . . . + . w e w l l h a x c v . . . . ",
". . u o O   . . . . . . . . . + w b w + l n m h M N +   . . . . ",
". . X o O   . . . . . . . . + w e . + + n m h 7 N c +   . . . . ",
". . X o O   . . . . . . . + w e + + + n m + 7 l N + +   . . . . ",
". . X o O   . . . . . . + w e . + + n m + + v N l + +   . . . . ",
". . X o O   . . . . . + w e + + + n m + + + c N . . +   . . . . ",
". . X o O   . . . . + w e + + + n m + + . . k + + . +   . . . . ",
". . X o O   . . . + w e + + . n m + . + + N c + . . +   . . . . ",
". . X o O   . . + w e + + n B m + + . . N c + . . . +   . . . . ",
". . X o O   . + + b . + n m . + . . + l N v . . . . +   . . . . ",
". . X o O   . . e w l n m - + . . + l N - . . . . . +   . . . . ",
". . X o O   + w e l n m . + . . + l N - + . . . . . +   . . . . ",
". . X o O   7 e 7 n m . + . . + l N - + . . . . . . +   . . . . ",
". . X o O 4 V w m m . + . + , l N - + . . . . . . . +   . . . . ",
". . X o C w Z m h . + + + l N N . + . . . . . . . . +   . . . . ",
". . X o O V m n 7 + v l N k l . + . . . . . . . . . +   . . . . ",
"    $ o A a n l l l k N c v                           $         ",
"C 1 S D 6 c c N N N F C 1 C C C C C C C C C C C C C C > C C C C ",
"o @ G : 6 N N H J J @ @ o o o o o o o o o o o o o o o @ o o o o ",
"X $ $ G S v , g l X X X X X X X X X X X X X X X X X $ u X X X X ",
". . K @ C   . . . . . . . . . . . . . . . . . . . . +   . . . . ",
". . X o O   . . . . . . . . . . . . . . . . . . . . +   . . . . ",
". . X o O   . . . . . . . . . . . . . . . . . . . . +   . . . . ",
". . X o O   . . . . . . . . . . . . . . . . . . . . +   . . . . "
};
