/* XPM */
static char * out_xray_fake_drawing_locator_xpm[] = {
"20 20 120 2",
"  	c #00FF00",
". 	c #000000",
"+ 	c #FF5D56",
"@ 	c #E93A37",
"# 	c #E1484A",
"$ 	c #F5625F",
"% 	c #F66663",
"& 	c #E54745",
"* 	c #CD4846",
"= 	c #FF6362",
"- 	c #FA5857",
"; 	c #E1605E",
"> 	c #FC4E4A",
", 	c #DA3F3F",
"' 	c #C54342",
") 	c #F56B6A",
"! 	c #D45352",
"~ 	c #EF7B76",
"{ 	c #DA5F57",
"] 	c #DF504F",
"^ 	c #F25851",
"/ 	c #D24543",
"( 	c #CC3F3E",
"_ 	c #ED6864",
": 	c #EA4D4A",
"< 	c #FF6968",
"[ 	c #D25C5A",
"} 	c #D35A56",
"| 	c #E7605E",
"1 	c #F95E5B",
"2 	c #F65B57",
"3 	c #E05754",
"4 	c #CF423D",
"5 	c #D95350",
"6 	c #DC5D59",
"7 	c #F86160",
"8 	c #EE4B47",
"9 	c #E27474",
"0 	c #DA6360",
"a 	c #DB5854",
"b 	c #D3504D",
"c 	c #CE4643",
"d 	c #D84C4B",
"e 	c #CF4E49",
"f 	c #F15F5A",
"g 	c #E64C49",
"h 	c #D75554",
"i 	c #DF6A65",
"j 	c #D35752",
"k 	c #D3504F",
"l 	c #C9403D",
"m 	c #CA4A46",
"n 	c #DD605C",
"o 	c #E6625F",
"p 	c #E04441",
"q 	c #D74F4C",
"r 	c #D24A48",
"s 	c #D84B47",
"t 	c #CE4843",
"u 	c #C2312D",
"v 	c #ED5955",
"w 	c #EE6257",
"x 	c #D55456",
"y 	c #CE5052",
"z 	c #DA6E66",
"A 	c #D75B58",
"B 	c #D75352",
"C 	c #DF4B46",
"D 	c #E44D44",
"E 	c #D6504E",
"F 	c #E17575",
"G 	c #DD6A66",
"H 	c #DE6C6A",
"I 	c #DA605D",
"J 	c #D24542",
"K 	c #F55D5C",
"L 	c #DF352E",
"M 	c #D65B53",
"N 	c #D75449",
"O 	c #D95B58",
"P 	c #D64A48",
"Q 	c #D8544F",
"R 	c #DC6B65",
"S 	c #D25554",
"T 	c #E74E46",
"U 	c #E1514E",
"V 	c #D35B54",
"W 	c #D75753",
"X 	c #D46362",
"Y 	c #DE615C",
"Z 	c #DE5E58",
"` 	c #DC5852",
" .	c #DE5B57",
"..	c #CD5D57",
"+.	c #E24C48",
"@.	c #E74E4C",
"#.	c #DB5E59",
"$.	c #D4413D",
"%.	c #DF3D3A",
"&.	c #D6433F",
"*.	c #CF5651",
"=.	c #CE443D",
"-.	c #F75045",
";.	c #ED514A",
">.	c #D03C37",
",.	c #DE4E46",
"'.	c #E53833",
").	c #E3564F",
"!.	c #CA413B",
"~.	c #E13E39",
"{.	c #DD4541",
"].	c #D63230",
"^.	c #C22120",
"/.	c #CB2424",
"(.	c #C22D2C",
"_.	c #D92120",
":.	c #E43330",
"<.	c #DA2E2E",
"[.	c #D12827",
"}.	c #C52A28",
"                                        ",
"  . .                         . . .     ",
"  . + .                     . @ # .     ",
"  . $ % .               . . & * = .     ",
"    . - ; .         . . > , ' ) .       ",
"    . ! ~ { . . . . ] ^ / ( _ : .       ",
"      . < [ } | 1 2 3 4 5 6 7 .         ",
"        . 8 9 0 a b c d e f .           ",
"        . g h i j k l m n o .           ",
"          . p q r s t u v .             ",
"          . w x y z A B C .             ",
"          . D E F G H I J K .           ",
"        . L M N O P Q R S T .           ",
"        . U V W X Y Z `  ...+..         ",
"      . @.#.$.%.. . . . &.*.=.-..       ",
"    . ;.>.,.. .         . '.).!.~..     ",
"    . {.]..               . ^./.(._..   ",
"  . :.<..                   . . [.}..   ",
"  . . .                         . .     ",
"                                        "};
