/* XPM */
static char * out_xray_collision_xpm[] = {
"20 20 49 1",
" 	c None",
".	c #00FF00",
"+	c #5F96CF",
"@	c #0F67C5",
"#	c #5F94CC",
"$	c #5F96CE",
"%	c #00ABFF",
"&	c #008FFF",
"*	c #0065CD",
"=	c #5F93C8",
"-	c #0F67C2",
";	c #0090FF",
">	c #0082FF",
",	c #006AD6",
"'	c #0F5FB2",
")	c #5F94CB",
"!	c #0063CB",
"~	c #0069D6",
"{	c #005DBD",
"]	c #5F92C8",
"^	c #E9E9E9",
"/	c #DDDDDD",
"(	c #0F5EB1",
"_	c #FAFAFA",
":	c #C8C8C8",
"<	c #DCDCDC",
"[	c #EDEDED",
"}	c #D5D5D5",
"|	c #D3D3D3",
"1	c #C7C7C7",
"2	c #C9C9C9",
"3	c #D1D1D1",
"4	c #CECECE",
"5	c #F6F6F6",
"6	c #CDCDCD",
"7	c #CFCFCF",
"8	c #D7D7D7",
"9	c #E5E5E5",
"0	c #CBCBCB",
"a	c #D4D4D4",
"b	c #CCCCCC",
"c	c #A1A1A1",
"d	c #000000",
"e	c #6E6E6E",
"f	c #888888",
"g	c #878787",
"h	c #545454",
"i	c #333333",
"j	c #FFFFFF",
"....................",
"...............+@#..",
"..............$%&*=.",
"..............-;>,'.",
"..............)!~{].",
"....^......../.=(]..",
"...._/......::<.....",
".....[}....|:112....",
"......<3...:114.....",
"......536.7:18......",
".......9602:8.......",
"........a0b8........",
"..cdddddddddddddddd.",
".cdefffffgffffffhid.",
".dj111111111111ciid.",
".deeeeeeeeeeeeeeiid.",
".deeeeeeeeeeeeeeiid.",
".deeeeeeeeeeeeeeidc.",
".ddddddddddddddddc..",
"...................."};
