/* XPM */
static char * out_xray_body_xpm[] = {
"20 20 8 1",
" 	c #00FF00",
".	c #000000",
"+	c #BBBBBB",
"@	c #AAAAAA",
"#	c #FF0000",
"$	c #999999",
"%	c #0088FF",
"&	c #0077FF",
"        ..      ... ",
"       .+@.    .+@. ",
"       .++.    .++@.",
"       .+.  ...@+@. ",
"  ... .......+++..  ",
" .+@+...##..#@+@.   ",
" .@++..+++.+...++.  ",
"  .@.$.@+.+@+.#...  ",
"   .@..+@.++@+.#.   ",
"  .@+@...@+@+@+.    ",
" .@+..#..+@+++.     ",
" ...#...+@+@+....   ",
"  .#.++.@+++.%%%%.  ",
"  .@+@+@.@+.%&%%%&. ",
"   .++@+....%%%%%%%.",
"   .+@+@. .%%%%%%%%.",
"    .+++. .%%%%%%%%.",
"    .@+@.  .%&%%%&%.",
"     .@..   .%%%%%. ",
"     ..      .....  "};
