/* XPM */
static char * xray_constraint_xpm[] = {
"20 20 3 1",
" 	c #00FF00",
".	c #3C3C3C",
"+	c #000000",
"                    ",
"        ....        ",
"        .++.        ",
"        .++.        ",
"        .++.        ",
"        .++.        ",
"        .++.        ",
"        .++.        ",
"        .++.        ",
"        .++.        ",
"        .++.        ",
"        .++.        ",
"        .++.        ",
"        ....        ",
"                    ",
"        .++.        ",
"        ++++        ",
"        ++++        ",
"        .++.        ",
"                    "};
